#!OML:ASF I:\Actors\actors\Patient Classification 2\Patient 1\Session 1\actor1.ASF
:FULLY-SPECIFIED
:DEGREES
222
root -0.514269 18.7992 5.07588 8.14912 1.20428 -1.66027
lowerback 20.0863 -0.997545 4.02247
upperback 9.33335 -0.57734 0.0827262
thorax -1.17105 -0.169903 -2.07417
lowerneck -21.492 -2.08163 -3.87292
upperneck 9.72478 -2.49063 5.25956
head 6.55065 -0.88037 2.04769
rclavicle 1.71452e-015 -1.2101e-014
rhumerus -47.3258 76.8795 -138.175
rradius 129.325
rwrist -11.2933
rhand -9.37303 -22.4355
rfingers 7.12502
rthumb 16.5873 -51.7466
lclavicle 1.71452e-015 -1.2101e-014
lhumerus -18.2673 -69.0048 110.943
lradius 115.447
lwrist 47.5999
lhand 28.9024 -10.2503
lfingers 7.12502
lthumb 52.7175 9.41937
rfemur -2.45865 1.88198 15.3418
rtibia 7.95139e-015
rfoot -16.1401 -16.3169
rtoes -10.3736
lfemur -19.6243 -0.265206 -12.7336
ltibia 27.0535
lfoot -15.9634 4.98337
ltoes -56.4065
223
root -0.565321 18.7976 5.0692 8.19804 1.35235 -1.68319
lowerback 20.1496 -1.11047 4.08139
upperback 9.30301 -0.706144 0.14104
thorax -1.2436 -0.234826 -2.01841
lowerneck -21.8385 -2.1918 -4.20775
upperneck 10.1121 -2.57707 5.46053
head 6.74379 -0.909617 2.15863
rclavicle 1.78906e-015 -1.48592e-014
rhumerus -49.4094 76.498 -140.182
rradius 129.076
rwrist -11.7269
rhand -8.92946 -22.4481
rfingers 7.12502
rthumb 17.0143 -51.723
lclavicle 1.78906e-015 -1.48592e-014
lhumerus -19.2126 -68.6892 112.117
lradius 115.057
lwrist 47.5236
lhand 28.6828 -10.566
lfingers 7.12502
lthumb 52.5189 9.22627
rfemur -2.51853 1.75013 15.5516
rtibia -8.74653e-015
rfoot -16.2884 -16.2638
rtoes -9.78743
lfemur -19.6879 -0.482135 -12.495
ltibia 26.9968
lfoot -15.9672 5.06668
ltoes -56.4874
224
root -0.619091 18.7953 5.06142 8.26313 1.4916 -1.66194
lowerback 20.2545 -1.27079 4.06224
upperback 9.26645 -0.907991 0.184082
thorax -1.34831 -0.338417 -1.91853
lowerneck -22.3978 -2.30003 -4.67216
upperneck 10.6859 -2.64342 5.80638
head 7.03671 -0.916632 2.34246
rclavicle -2.62147e-015 -3.926e-015
rhumerus -52.3155 76.0736 -143.21
rradius 128.81
rwrist -12.6206
rhand -8.17483 -22.8402
rfingers 7.12502
rthumb 17.7406 -52.0509
lclavicle -2.62147e-015 -3.926e-015
lhumerus -20.1397 -68.1919 113.259
lradius 114.642
lwrist 47.6419
lhand 28.4412 -10.6296
lfingers 7.12502
lthumb 52.3002 9.29598
rfemur -2.61261 1.62077 15.7289
rtibia 2.3059e-014
rfoot -16.3535 -16.2585
rtoes -9.60287
lfemur -19.7552 -0.698544 -12.2919
ltibia 26.9183
lfoot -15.9562 5.16094
ltoes -56.6724
225
root -0.691996 18.7949 5.05741 8.46949 1.52033 -1.14473
lowerback 20.028 -1.17846 3.36325
upperback 9.33043 -0.926348 0.0620295
thorax -1.16449 -0.360228 -1.651
lowerneck -22.9419 -2.43691 -4.71383
upperneck 11.1456 -2.84658 6.00424
head 7.29151 -0.984968 2.39189
rclavicle -1.09332e-015 -1.09456e-014
rhumerus -53.5479 75.4305 -144.724
rradius 128.423
rwrist -13.8144
rhand -7.35315 -22.9405
rfingers 7.12502
rthumb 18.5311 -52.0779
lclavicle -1.09332e-015 -1.09456e-014
lhumerus -21.0318 -68.0616 114.26
lradius 114.201
lwrist 47.876
lhand 28.2723 -10.6113
lfingers 7.12502
lthumb 52.1471 9.40659
rfemur -2.85283 1.5186 15.3947
rtibia 3.18055e-015
rfoot -16.4259 -16.2327
rtoes -9.03134
lfemur -19.9298 -0.917115 -12.5969
ltibia 26.7897
lfoot -15.914 5.31753
ltoes -56.9348
226
root -0.736141 18.7894 5.04171 8.32561 1.80705 -1.71069
lowerback 20.0746 -1.23258 4.24973
upperback 9.47623 -0.839613 0.126
thorax -1.0273 -0.287765 -2.1035
lowerneck -23.0733 -2.67625 -4.55196
upperneck 11.2855 -3.23556 6.08603
head 7.38067 -1.15215 2.3432
rclavicle -3.77691e-015 -1.88845e-015
rhumerus -53.686 74.6171 -145.044
rradius 127.881
rwrist -14.9068
rhand -6.88318 -22.7866
rfingers 7.12502
rthumb 18.9832 -51.8803
lclavicle -3.77691e-015 -1.88845e-015
lhumerus -22.2091 -68.2479 115.602
lradius 113.69
lwrist 48.0034
lhand 28.3815 -10.7453
lfingers 7.12502
lthumb 52.2461 9.21303
rfemur -2.7216 1.34917 16.2272
rtibia -1.35174e-014
rfoot -16.421 -16.2435
rtoes -8.86769
lfemur -19.792 -1.11544 -11.7685
ltibia 26.6563
lfoot -15.8306 5.36426
ltoes -57.1286
